<svg width="101" height="64" viewBox="0 0 101 64" fill="none" xmlns="http://www.w3.org/2000/svg">
<path d="M43.1406 40.8203C43.1875 40.6172 43.2461 40.4023 43.3164 40.1758C43.3867 39.9414 43.4805 39.7305 43.5977 39.543C43.7148 39.3477 43.8672 39.1875 44.0547 39.0625C44.2422 38.9297 44.4805 38.8633 44.7695 38.8633C45.043 38.8633 45.2852 38.9414 45.4961 39.0977C45.7148 39.2461 45.9102 39.3984 46.082 39.5547C46.2852 39.6875 46.4805 39.957 46.668 40.3633C46.8555 40.7695 47.0469 41.2695 47.2422 41.8633C47.4453 42.457 47.6602 43.1289 47.8867 43.8789C48.1211 44.6289 48.375 45.4141 48.6484 46.2344C48.9297 47.0547 49.2422 47.8945 49.5859 48.7539C49.9297 49.6055 50.3203 50.4375 50.7578 51.25C50.8281 51.375 50.9102 51.5234 51.0039 51.6953C51.0977 51.8594 51.1914 52.0156 51.2852 52.1641C51.3867 52.3125 51.4766 52.4375 51.5547 52.5391C51.6406 52.6406 51.7031 52.6914 51.7422 52.6914C51.7656 52.6914 51.793 52.6328 51.8242 52.5156C51.8555 52.3984 51.8906 52.2578 51.9297 52.0938C51.9688 51.9297 52.0078 51.7617 52.0469 51.5898C52.0938 51.418 52.1367 51.2773 52.1758 51.168C52.3242 50.8086 52.4844 50.3984 52.6562 49.9375C52.8359 49.4688 53.0312 48.9062 53.2422 48.25C53.4609 47.5859 53.6992 46.8008 53.957 45.8945C54.2148 44.9883 54.5 43.9141 54.8125 42.6719C54.8906 42.3672 54.9727 42.0234 55.0586 41.6406C55.1523 41.25 55.2383 40.8555 55.3164 40.457C55.4023 40.0508 55.4766 39.6562 55.5391 39.2734C55.6016 38.8906 55.6445 38.5586 55.668 38.2773C55.668 38.2305 55.6719 38.1484 55.6797 38.0312C55.6875 37.9141 55.6992 37.7812 55.7148 37.6328C55.7383 37.4844 55.7656 37.332 55.7969 37.1758C55.8281 37.0117 55.8672 36.8633 55.9141 36.7305C55.9688 36.5977 56.0352 36.4883 56.1133 36.4023C56.1914 36.3164 56.2852 36.2734 56.3945 36.2734C56.5039 36.2734 56.6367 36.2891 56.793 36.3203C56.957 36.3516 57.1055 36.3984 57.2383 36.4609C57.3867 36.6641 57.5195 36.9102 57.6367 37.1992C57.7617 37.4805 57.8242 37.8633 57.8242 38.3477C57.8242 38.6523 57.793 39.0195 57.7305 39.4492C57.668 39.8711 57.5859 40.3281 57.4844 40.8203C57.3906 41.3047 57.2812 41.8047 57.1562 42.3203C57.0391 42.8359 56.918 43.332 56.793 43.8086C56.668 44.2773 56.5469 44.7109 56.4297 45.1094C56.3203 45.5 56.2266 45.8242 56.1484 46.082C56.0078 46.5352 55.8594 47.0039 55.7031 47.4883C55.5547 47.9648 55.3867 48.4688 55.1992 49C55.0195 49.5234 54.8203 50.082 54.6016 50.6758C54.3906 51.2617 54.1523 51.8906 53.8867 52.5625C53.7695 52.8672 53.6328 53.1719 53.4766 53.4766C53.3281 53.7812 53.1562 54.0586 52.9609 54.3086C52.7656 54.5508 52.543 54.75 52.293 54.9062C52.0508 55.0547 51.7773 55.1289 51.4727 55.1289C51.293 55.1289 51.1055 55.1016 50.9102 55.0469C50.7227 55 50.5625 54.8984 50.4297 54.7422C49.7891 54 49.2188 53.1602 48.7188 52.2227C48.2188 51.2773 47.7695 50.293 47.3711 49.2695C46.9805 48.2383 46.6328 47.1992 46.3281 46.1523C46.0234 45.0977 45.7461 44.0898 45.4961 43.1289L45.4258 42.8594C45.3945 42.75 45.3633 42.6406 45.332 42.5312C45.3086 42.4141 45.2812 42.3086 45.25 42.2148C45.2266 42.1211 45.1953 42.0469 45.1562 41.9922C45.125 41.9297 45.0859 41.8984 45.0391 41.8984C44.9922 41.8984 44.9336 41.9844 44.8633 42.1562C44.793 42.3281 44.7227 42.5234 44.6523 42.7422C44.582 42.9531 44.5156 43.1602 44.4531 43.3633C44.3984 43.5664 44.3633 43.6953 44.3477 43.75C44.293 43.9531 44.2109 44.2461 44.1016 44.6289C43.9922 45.0039 43.8672 45.4297 43.7266 45.9062C43.5938 46.3828 43.4453 46.8867 43.2812 47.418C43.125 47.9492 42.9727 48.4648 42.8242 48.9648C42.6758 49.457 42.5352 49.9141 42.4023 50.3359C42.2695 50.7578 42.1602 51.0977 42.0742 51.3555C42.0039 51.5586 41.918 51.8203 41.8164 52.1406C41.7148 52.4609 41.6133 52.7852 41.5117 53.1133C41.4102 53.4336 41.3164 53.7266 41.2305 53.9922C41.1445 54.2578 41.0898 54.4336 41.0664 54.5195C40.9727 54.8164 40.832 55.0391 40.6445 55.1875C40.4648 55.3438 40.2812 55.4219 40.0938 55.4219C39.9766 55.4219 39.8594 55.3789 39.7422 55.293C39.625 55.2148 39.5195 55.1172 39.4258 55C39.3398 54.8828 39.2656 54.7578 39.2031 54.625C39.1484 54.4844 39.1211 54.3594 39.1211 54.25C39.1211 54.1875 39.1406 54.0898 39.1797 53.957C39.2188 53.8164 39.2812 53.582 39.3672 53.2539L39.6719 52.0469L43.1406 40.8203Z" fill="#67375C"/>
<path d="M85.9727 51.3555C85.9727 50.6992 86.0469 50.0195 86.1953 49.3164C86.3438 48.6055 86.5 47.9258 86.6641 47.2773C86.4609 47.2695 86.2539 47.2383 86.043 47.1836C85.832 47.1289 85.6406 47.0547 85.4688 46.9609C85.2969 46.8672 85.1562 46.7539 85.0469 46.6211C84.9375 46.4805 84.8828 46.3203 84.8828 46.1406C84.8828 46.0703 84.8984 45.9805 84.9297 45.8711C84.9609 45.7617 85.0039 45.6562 85.0586 45.5547C85.1211 45.4453 85.1992 45.3555 85.293 45.2852C85.3867 45.207 85.4922 45.168 85.6094 45.168H87.1797C87.3281 45.168 87.4297 45.1055 87.4844 44.9805C87.5391 44.8477 87.582 44.7188 87.6133 44.5938C87.7148 44.1406 87.8086 43.75 87.8945 43.4219C87.9883 43.0859 88.0664 42.8047 88.1289 42.5781C88.1914 42.3438 88.2383 42.1562 88.2695 42.0156C88.3086 41.8672 88.3281 41.75 88.3281 41.6641C88.3281 41.5625 88.3242 41.4648 88.3164 41.3711C88.3086 41.2773 88.3047 41.1484 88.3047 40.9844V40.8672C88.3047 40.8047 88.3086 40.7227 88.3164 40.6211C88.332 40.5195 88.3711 40.375 88.4336 40.1875C88.4805 40.0391 88.5664 39.8984 88.6914 39.7656C88.8164 39.6328 89 39.5664 89.2422 39.5664C89.4531 39.5664 89.6328 39.6094 89.7812 39.6953C89.9297 39.7812 90.0508 39.8945 90.1445 40.0352C90.2383 40.1758 90.3086 40.3359 90.3555 40.5156C90.4023 40.6953 90.4258 40.875 90.4258 41.0547C90.4258 41.25 90.4062 41.4258 90.3672 41.582L89.5117 44.8633C89.9336 44.793 90.3086 44.7266 90.6367 44.6641C90.9648 44.6016 91.293 44.5391 91.6211 44.4766C91.9805 44.4062 92.2891 44.3398 92.5469 44.2773C92.8125 44.2148 93.0391 44.1641 93.2266 44.125C93.4141 44.0781 93.5703 44.043 93.6953 44.0195C93.8281 43.9883 93.9375 43.9727 94.0234 43.9727C94.1484 43.9727 94.2734 43.9844 94.3984 44.0078C94.5312 44.0234 94.6445 44.0547 94.7383 44.1016C94.8398 44.1484 94.9219 44.2148 94.9844 44.3008C95.0469 44.3867 95.0781 44.5 95.0781 44.6406C95.0781 44.8281 95.0391 44.9961 94.9609 45.1445C94.8906 45.2852 94.7969 45.4102 94.6797 45.5195C94.5625 45.6211 94.4297 45.707 94.2812 45.7773C94.1328 45.8398 93.9844 45.8867 93.8359 45.918C93.7109 45.9414 93.5469 45.9766 93.3438 46.0234C93.1484 46.0703 92.9297 46.1211 92.6875 46.1758C92.4531 46.2305 92.207 46.2891 91.9492 46.3516C91.6914 46.4141 91.4414 46.4766 91.1992 46.5391C90.8398 46.6328 90.5312 46.7109 90.2734 46.7734C90.0234 46.8359 89.8086 46.8828 89.6289 46.9141C89.4492 46.9453 89.3008 46.9688 89.1836 46.9844C89.0742 47 88.9844 47.0078 88.9141 47.0078C88.7656 47.4531 88.6367 47.8906 88.5273 48.3203C88.418 48.75 88.3242 49.1523 88.2461 49.5273C88.1758 49.8945 88.1211 50.2266 88.082 50.5234C88.0508 50.8125 88.0352 51.0391 88.0352 51.2031C88.0352 51.4141 88.0547 51.6172 88.0938 51.8125C88.1328 52 88.1992 52.1641 88.293 52.3047C88.3867 52.4453 88.5117 52.5586 88.668 52.6445C88.832 52.7227 89.0352 52.7617 89.2773 52.7617C89.6914 52.7617 90.0977 52.6484 90.4961 52.4219C90.8945 52.1953 91.2734 51.9102 91.6328 51.5664C92 51.2148 92.3438 50.832 92.6641 50.418C92.9922 50.0039 93.293 49.6094 93.5664 49.2344C93.6602 49.0938 93.7812 49.0234 93.9297 49.0234C93.9766 49.0234 94.0312 49.0312 94.0938 49.0469C94.1641 49.0625 94.2305 49.0898 94.293 49.1289C94.3555 49.168 94.4062 49.2188 94.4453 49.2812C94.4922 49.3438 94.5156 49.418 94.5156 49.5039C94.5156 49.5664 94.5117 49.6133 94.5039 49.6445C94.3789 50.1289 94.1836 50.6172 93.918 51.1094C93.6602 51.5938 93.3945 52.082 93.1211 52.5742C93.0273 52.7461 92.9023 52.9141 92.7461 53.0781C92.5977 53.2422 92.4336 53.4023 92.2539 53.5586C92.0742 53.707 91.8867 53.8516 91.6914 53.9922C91.4961 54.125 91.3125 54.2461 91.1406 54.3555C90.8438 54.543 90.5195 54.6719 90.168 54.7422C89.8164 54.8125 89.4766 54.8477 89.1484 54.8477C88.6406 54.8477 88.1875 54.7578 87.7891 54.5781C87.3984 54.3906 87.0664 54.1406 86.793 53.8281C86.5273 53.5078 86.3242 53.1367 86.1836 52.7148C86.043 52.293 85.9727 51.8398 85.9727 51.3555Z" fill="#67375C"/>
<path d="M3.98438 23.4375C4.19922 22.5488 4.47754 21.6211 4.81934 20.6543C5.1709 19.6875 5.53711 18.7012 5.91797 17.6953C6.29883 16.6895 6.6748 15.6689 7.0459 14.6338C7.41699 13.5889 7.73438 12.5488 7.99805 11.5137C8.06641 11.2598 8.125 11.0254 8.17383 10.8105C8.22266 10.5957 8.27148 10.3662 8.32031 10.1221C8.4375 9.86816 8.59375 9.67285 8.78906 9.53613C8.99414 9.39941 9.21387 9.33105 9.44824 9.33105C9.66309 9.33105 9.86328 9.36523 10.0488 9.43359C10.2441 9.50195 10.4102 9.61426 10.5469 9.77051C10.6934 9.91699 10.8057 10.1074 10.8838 10.3418C10.9717 10.5762 11.0156 10.8545 11.0156 11.1768C11.0156 11.5283 10.9619 11.9287 10.8545 12.3779C10.4736 13.3545 10.0879 14.3115 9.69727 15.249C9.30664 16.1865 8.92578 17.1045 8.55469 18.0029C8.19336 18.9014 7.85645 19.79 7.54395 20.6689C7.23145 21.5479 6.96289 22.417 6.73828 23.2764C6.71875 23.3447 6.67969 23.4961 6.62109 23.7305C6.5625 23.9551 6.49902 24.2285 6.43066 24.5508C6.37207 24.873 6.31836 25.2197 6.26953 25.5908C6.2207 25.9521 6.19629 26.3037 6.19629 26.6455C6.19629 26.8799 6.21094 27.1045 6.24023 27.3193C6.26953 27.5244 6.31836 27.7051 6.38672 27.8613C6.45508 28.0176 6.54785 28.1396 6.66504 28.2275C6.78223 28.3154 6.92871 28.3594 7.10449 28.3594C7.47559 28.3594 7.92969 28.1689 8.4668 27.7881C9.00391 27.3975 9.58496 26.8701 10.21 26.2061C10.835 25.542 11.4746 24.7656 12.1289 23.877C12.793 22.9883 13.4375 22.0361 14.0625 21.0205C14.6875 20.0049 15.2686 18.96 15.8057 17.8857C16.3428 16.8115 16.7969 15.752 17.168 14.707C17.2559 14.5215 17.3633 14.4043 17.4902 14.3555C17.6172 14.2969 17.7832 14.2676 17.9883 14.2676C18.3691 14.2676 18.6865 14.3848 18.9404 14.6191C19.2041 14.8438 19.3359 15.1367 19.3359 15.498C19.3359 15.5859 19.3262 15.6689 19.3066 15.7471C19.2871 15.8252 19.2578 15.918 19.2188 16.0254L19.0137 16.626C18.8574 17.085 18.7061 17.5098 18.5596 17.9004C18.4229 18.2812 18.3105 18.6426 18.2227 18.9844C18.0957 19.4727 17.9932 19.9219 17.915 20.332C17.8369 20.7324 17.7734 21.1133 17.7246 21.4746C17.6855 21.8262 17.6562 22.1729 17.6367 22.5146C17.627 22.8564 17.6221 23.2031 17.6221 23.5547C17.6221 23.6914 17.6318 23.8916 17.6514 24.1553C17.6807 24.4189 17.7197 24.7119 17.7686 25.0342C17.8174 25.3467 17.8809 25.6689 17.959 26.001C18.0469 26.3232 18.1445 26.6211 18.252 26.8945C18.3691 27.168 18.501 27.3926 18.6475 27.5684C18.8037 27.7344 18.9795 27.8174 19.1748 27.8174C19.4775 27.8174 19.7949 27.6953 20.127 27.4512C20.4688 27.1973 20.8105 26.8555 21.1523 26.4258C21.4941 25.9863 21.8359 25.4736 22.1777 24.8877C22.5293 24.3018 22.8662 23.6719 23.1885 22.998C23.5205 22.3242 23.833 21.626 24.126 20.9033C24.4287 20.1807 24.7021 19.4678 24.9463 18.7646C25.2002 18.0518 25.4199 17.3682 25.6055 16.7139C25.8008 16.0498 25.957 15.4443 26.0742 14.8975C26.1816 14.3799 26.2744 13.877 26.3525 13.3887C26.4307 12.9004 26.5088 12.4121 26.5869 11.9238C26.665 11.4355 26.748 10.9473 26.8359 10.459C26.9336 9.96094 27.0508 9.45312 27.1875 8.93555C27.2363 8.75 27.3096 8.55957 27.4072 8.36426C27.5049 8.16895 27.6221 7.99316 27.7588 7.83691C27.9053 7.6709 28.0615 7.53906 28.2275 7.44141C28.3936 7.33398 28.5645 7.28027 28.7402 7.28027C29.1797 7.28027 29.4775 7.40234 29.6338 7.64648C29.79 7.88086 29.8682 8.27637 29.8682 8.83301C29.8682 9.24316 29.8291 9.72168 29.751 10.2686C29.6826 10.8154 29.5898 11.3916 29.4727 11.9971C29.3652 12.5928 29.2432 13.1982 29.1064 13.8135C28.9697 14.4287 28.833 15.0098 28.6963 15.5566C28.4229 16.6699 28.0615 17.8271 27.6123 19.0283C27.1631 20.2197 26.6602 21.3867 26.1035 22.5293C25.5566 23.6621 24.9707 24.7314 24.3457 25.7373C23.7305 26.7432 23.1104 27.6074 22.4854 28.3301C22.2705 28.584 22.0166 28.8428 21.7236 29.1064C21.4307 29.3701 21.1133 29.6094 20.7715 29.8242C20.4395 30.0391 20.0977 30.2148 19.7461 30.3516C19.4043 30.498 19.0723 30.5713 18.75 30.5713C18.0762 30.5713 17.5098 30.376 17.0508 29.9854C16.6016 29.585 16.2305 29.0576 15.9375 28.4033C15.6543 27.7393 15.4346 26.9873 15.2783 26.1475C15.1318 25.2979 15.0244 24.4238 14.9561 23.5254C14.4092 24.3359 13.9062 25.0586 13.4473 25.6934C12.998 26.3281 12.5391 26.9141 12.0703 27.4512C11.7188 27.8516 11.3232 28.2861 10.8838 28.7549C10.4443 29.2139 9.97559 29.6387 9.47754 30.0293C8.98926 30.4297 8.48633 30.7568 7.96875 31.0107C7.45117 31.2744 6.94336 31.4062 6.44531 31.4062C5.86914 31.4062 5.38574 31.3037 4.99512 31.0986C4.61426 30.9033 4.30664 30.6299 4.07227 30.2783C3.83789 29.9268 3.66699 29.5117 3.55957 29.0332C3.46191 28.5547 3.41309 28.0371 3.41309 27.4805C3.41309 26.8359 3.4668 26.1719 3.57422 25.4883C3.68164 24.8047 3.81836 24.1211 3.98438 23.4375ZM30.5859 27.3193C30.7324 26.7529 30.9082 26.0938 31.1133 25.3418C31.3184 24.5898 31.5332 23.7939 31.7578 22.9541C31.9922 22.1143 32.2266 21.2549 32.4609 20.376C32.6953 19.4971 32.915 18.6426 33.1201 17.8125C33.1299 17.7734 33.1641 17.71 33.2227 17.6221C33.2812 17.5244 33.3643 17.4316 33.4717 17.3438C33.5791 17.2461 33.7158 17.1631 33.8818 17.0947C34.0479 17.0264 34.2432 16.9922 34.4678 16.9922C34.6338 16.9922 34.7949 17.0117 34.9512 17.0508C35.1074 17.0801 35.2441 17.1289 35.3613 17.1973C35.4883 17.2656 35.5859 17.3584 35.6543 17.4756C35.7324 17.583 35.7715 17.71 35.7715 17.8564C35.7715 17.8857 35.7715 17.9199 35.7715 17.959C35.7715 17.9883 35.7666 18.0176 35.7568 18.0469L35.3467 19.5996C34.8877 21.3379 34.4189 23.0811 33.9404 24.8291C33.4717 26.5771 33.0127 28.3301 32.5635 30.0879C32.5439 30.1465 32.5146 30.2197 32.4756 30.3076C32.4365 30.3955 32.3828 30.4834 32.3145 30.5713C32.2461 30.6592 32.1631 30.7324 32.0654 30.791C31.9678 30.8496 31.8506 30.8789 31.7139 30.8789C31.46 30.8789 31.2354 30.8252 31.04 30.7178C30.8447 30.6201 30.6787 30.4932 30.542 30.3369C30.4053 30.1807 30.3027 30.0098 30.2344 29.8242C30.166 29.6387 30.1318 29.4629 30.1318 29.2969C30.1318 29.248 30.1318 29.2041 30.1318 29.165C30.1318 29.126 30.1416 29.082 30.1611 29.0332L30.5859 27.3193ZM34.4092 12.1582C34.458 11.9531 34.5459 11.7041 34.6729 11.4111C34.7998 11.1182 35.0244 10.8545 35.3467 10.6201C35.5029 10.5322 35.6934 10.4541 35.918 10.3857C36.1426 10.3076 36.3037 10.2686 36.4014 10.2686C36.499 10.2686 36.5967 10.3027 36.6943 10.3711C36.8018 10.4395 36.8945 10.5127 36.9727 10.5908C37.0703 10.6885 37.1631 10.7959 37.251 10.9131C37.4951 10.9326 37.6514 11.0205 37.7197 11.1768C37.7979 11.333 37.8369 11.5186 37.8369 11.7334C37.8369 11.8896 37.8223 12.0312 37.793 12.1582C37.7637 12.2852 37.7393 12.3877 37.7197 12.4658C37.6611 12.6709 37.5488 12.8613 37.3828 13.0371C37.2168 13.2031 37.0264 13.3496 36.8115 13.4766C36.5967 13.5938 36.3721 13.6865 36.1377 13.7549C35.9033 13.8232 35.6982 13.8574 35.5225 13.8574C35.2979 13.8574 35.1221 13.8184 34.9951 13.7402C34.8779 13.6621 34.7266 13.4961 34.541 13.2422C34.4336 13.0957 34.3701 12.9834 34.3506 12.9053C34.3408 12.8174 34.3359 12.7441 34.3359 12.6855C34.3359 12.5781 34.3408 12.4854 34.3506 12.4072C34.3701 12.3193 34.3896 12.2363 34.4092 12.1582ZM48.6035 17.9736C48.2617 17.9736 47.8955 18.0566 47.5049 18.2227C47.1143 18.3789 46.709 18.5938 46.2891 18.8672C45.8691 19.1406 45.4395 19.4531 45 19.8047C44.5703 20.1465 44.1455 20.5029 43.7256 20.874C43.5107 21.0596 43.3057 21.2305 43.1104 21.3867C42.915 21.5332 42.7197 21.6455 42.5244 21.7236C42.3877 21.9482 42.2412 22.2461 42.085 22.6172C41.9385 22.9785 41.792 23.3789 41.6455 23.8184C41.499 24.248 41.3574 24.6924 41.2207 25.1514C41.0938 25.6006 40.9863 26.0205 40.8984 26.4111C40.8496 26.6162 40.8105 26.8164 40.7812 27.0117C40.752 27.207 40.7178 27.417 40.6787 27.6416C40.6396 27.8564 40.5908 28.0908 40.5322 28.3447C40.4834 28.5986 40.4199 28.8818 40.3418 29.1943C40.293 29.3799 40.2148 29.5312 40.1074 29.6484C40 29.7559 39.8877 29.8389 39.7705 29.8975C39.6533 29.9561 39.541 29.9902 39.4336 30C39.3262 30.0195 39.2432 30.0293 39.1846 30.0293C38.8135 30.0293 38.5107 29.9414 38.2764 29.7656C38.042 29.5898 37.9248 29.248 37.9248 28.7402C37.9248 28.6035 37.9297 28.4619 37.9395 28.3154C37.9492 28.1592 37.9785 27.9883 38.0273 27.8027C38.2422 26.875 38.4473 26.04 38.6426 25.2979C38.8477 24.5557 39.0527 23.8672 39.2578 23.2324C39.4629 22.5977 39.668 22.002 39.873 21.4453C40.0879 20.8789 40.3027 20.3125 40.5176 19.7461C40.7422 19.1699 40.9717 18.5791 41.2061 17.9736C41.4502 17.3584 41.709 16.6797 41.9824 15.9375C42.041 15.7715 42.1924 15.6348 42.4365 15.5273C42.6904 15.4102 42.959 15.3516 43.2422 15.3516C43.6133 15.3516 43.916 15.4346 44.1504 15.6006C44.3945 15.7666 44.5166 16.0059 44.5166 16.3184C44.5166 16.3477 44.5068 16.4014 44.4873 16.4795C44.4678 16.5576 44.4385 16.6406 44.3994 16.7285L43.7549 18.252C44.165 17.9297 44.5898 17.6074 45.0293 17.2852C45.4785 16.9629 45.9375 16.6748 46.4062 16.4209C46.875 16.1572 47.3438 15.9473 47.8125 15.791C48.291 15.625 48.7598 15.542 49.2188 15.542C50.1562 15.542 50.8887 15.7959 51.416 16.3037C51.9434 16.8018 52.207 17.5781 52.207 18.6328C52.207 19.2383 52.0996 19.9268 51.8848 20.6982C51.6797 21.4697 51.416 22.2998 51.0938 23.1885C50.7812 24.0674 50.4395 24.9951 50.0684 25.9717C49.707 26.9385 49.3701 27.9248 49.0576 28.9307C48.9697 29.2041 48.877 29.4336 48.7793 29.6191C48.6914 29.8047 48.584 29.9512 48.457 30.0586C48.3301 30.1758 48.1787 30.2588 48.0029 30.3076C47.8369 30.3564 47.6318 30.3809 47.3877 30.3809C47.0068 30.3809 46.7432 30.3076 46.5967 30.1611C46.4502 30.0244 46.377 29.7998 46.377 29.4873C46.377 29.2139 46.416 28.8818 46.4941 28.4912C46.582 28.0908 46.6992 27.6562 46.8457 27.1875C47.002 26.709 47.1777 26.2012 47.373 25.6641C47.5781 25.127 47.7979 24.5801 48.0322 24.0234C48.2178 23.5742 48.3984 23.125 48.5742 22.6758C48.7598 22.2266 48.9209 21.792 49.0576 21.3721C49.2041 20.9521 49.3213 20.5518 49.4092 20.1709C49.4971 19.79 49.541 19.4385 49.541 19.1162C49.541 18.8135 49.4727 18.5498 49.3359 18.3252C49.209 18.0908 48.9648 17.9736 48.6035 17.9736ZM54.5801 24.3457C54.5801 23.9258 54.6924 23.5693 54.917 23.2764C55.1416 22.9834 55.4395 22.7881 55.8105 22.6904C55.918 22.4756 56.084 22.1875 56.3086 21.8262C56.5332 21.4551 56.8115 21.0547 57.1436 20.625C57.4756 20.1953 57.8516 19.7656 58.2715 19.3359C58.7012 18.8965 59.1699 18.501 59.6777 18.1494C60.1953 17.7881 60.7471 17.4951 61.333 17.2705C61.9287 17.0459 62.5586 16.9336 63.2227 16.9336C63.7891 16.9336 64.2822 17.002 64.7021 17.1387C65.1221 17.2754 65.4688 17.4658 65.7422 17.71C66.0156 17.9541 66.2207 18.2471 66.3574 18.5889C66.4941 18.9209 66.5625 19.2822 66.5625 19.6729C66.5625 20.0049 66.5186 20.3223 66.4307 20.625C66.2939 21.1719 66.04 21.6504 65.6689 22.0605C65.2979 22.4707 64.8584 22.832 64.3506 23.1445C63.8525 23.4473 63.3057 23.7012 62.71 23.9062C62.124 24.1113 61.5332 24.2822 60.9375 24.4189C60.3516 24.5557 59.7852 24.6631 59.2383 24.7412C58.6914 24.8096 58.2178 24.8633 57.8174 24.9023C57.7295 25.0781 57.6514 25.3027 57.583 25.5762C57.5244 25.8398 57.4951 26.0986 57.4951 26.3525C57.4951 26.9189 57.7197 27.3584 58.1689 27.6709C58.6182 27.9834 59.2383 28.1396 60.0293 28.1396C60.4883 28.1396 60.9277 28.0908 61.3477 27.9932C61.7676 27.8857 62.1631 27.7539 62.5342 27.5977C62.915 27.4316 63.2715 27.2559 63.6035 27.0703C63.9355 26.875 64.2383 26.6846 64.5117 26.499C64.8633 26.2646 65.1953 26.0693 65.5078 25.9131C65.8301 25.7471 66.1133 25.6641 66.3574 25.6641C66.6016 25.6641 66.7578 25.7275 66.8262 25.8545C66.8945 25.9717 66.9287 26.0986 66.9287 26.2354C66.9287 26.3135 66.9238 26.3916 66.9141 26.4697C66.9141 26.5381 66.9092 26.5967 66.8994 26.6455C66.8506 26.8994 66.7529 27.1533 66.6064 27.4072C66.46 27.6611 66.2744 27.8809 66.0498 28.0664C65.0342 28.8672 63.9893 29.4385 62.915 29.7803C61.8506 30.1221 60.7129 30.293 59.502 30.293C59.2676 30.293 58.9893 30.2783 58.667 30.249C58.3545 30.2197 58.0273 30.1611 57.6855 30.0732C57.3438 29.9854 57.0068 29.8584 56.6748 29.6924C56.3428 29.5264 56.0449 29.3066 55.7812 29.0332C55.5273 28.7598 55.3174 28.4229 55.1514 28.0225C54.9951 27.6221 54.917 27.1387 54.917 26.5723C54.917 26.1133 54.9805 25.6006 55.1074 25.0342C54.9805 25.0146 54.8584 24.9512 54.7412 24.8438C54.6338 24.7266 54.5801 24.5605 54.5801 24.3457ZM63.75 20.2881C63.7695 20.2393 63.7793 20.1953 63.7793 20.1562C63.7793 20.1172 63.7793 20.0732 63.7793 20.0244C63.7793 19.7607 63.6816 19.5654 63.4863 19.4385C63.291 19.3018 63.0566 19.2334 62.7832 19.2334C62.3535 19.2334 61.9287 19.3457 61.5088 19.5703C61.0986 19.7949 60.708 20.0781 60.3369 20.4199C59.9756 20.752 59.6533 21.1133 59.3701 21.5039C59.0869 21.8848 58.8672 22.2314 58.7109 22.5439C59.4141 22.4854 60.0586 22.3926 60.6445 22.2656C61.2305 22.1289 61.7383 21.9629 62.168 21.7676C62.6074 21.5625 62.959 21.3379 63.2227 21.0938C63.4961 20.8398 63.6719 20.5713 63.75 20.2881Z" fill="#67375C"/>
<mask id="mask0_186_103" style="mask-type:alpha" maskUnits="userSpaceOnUse" x="51" y="42" width="41" height="14">
<path d="M54 52C58.5 49 64.4998 49.5 70.5 51C77.3083 52.702 87.5 47 89 46" stroke="#75C4C7" stroke-width="9"/>
</mask>
<g mask="url(#mask0_186_103)">
<circle cx="71" cy="45" r="11" transform="rotate(-180 71 45)" fill="#67375C"/>
</g>
<circle cx="71" cy="45" r="10.5" stroke="#67375C"/>
</svg>
