<svg width="101" height="68" viewBox="0 0 101 68" fill="none" xmlns="http://www.w3.org/2000/svg">
<path d="M43.1406 44.8203C43.1875 44.6172 43.2461 44.4023 43.3164 44.1758C43.3867 43.9414 43.4805 43.7305 43.5977 43.543C43.7148 43.3477 43.8672 43.1875 44.0547 43.0625C44.2422 42.9297 44.4805 42.8633 44.7695 42.8633C45.043 42.8633 45.2852 42.9414 45.4961 43.0977C45.7148 43.2461 45.9102 43.3984 46.082 43.5547C46.2852 43.6875 46.4805 43.957 46.668 44.3633C46.8555 44.7695 47.0469 45.2695 47.2422 45.8633C47.4453 46.457 47.6602 47.1289 47.8867 47.8789C48.1211 48.6289 48.375 49.4141 48.6484 50.2344C48.9297 51.0547 49.2422 51.8945 49.5859 52.7539C49.9297 53.6055 50.3203 54.4375 50.7578 55.25C50.8281 55.375 50.9102 55.5234 51.0039 55.6953C51.0977 55.8594 51.1914 56.0156 51.2852 56.1641C51.3867 56.3125 51.4766 56.4375 51.5547 56.5391C51.6406 56.6406 51.7031 56.6914 51.7422 56.6914C51.7656 56.6914 51.793 56.6328 51.8242 56.5156C51.8555 56.3984 51.8906 56.2578 51.9297 56.0938C51.9688 55.9297 52.0078 55.7617 52.0469 55.5898C52.0938 55.418 52.1367 55.2773 52.1758 55.168C52.3242 54.8086 52.4844 54.3984 52.6562 53.9375C52.8359 53.4688 53.0312 52.9062 53.2422 52.25C53.4609 51.5859 53.6992 50.8008 53.957 49.8945C54.2148 48.9883 54.5 47.9141 54.8125 46.6719C54.8906 46.3672 54.9727 46.0234 55.0586 45.6406C55.1523 45.25 55.2383 44.8555 55.3164 44.457C55.4023 44.0508 55.4766 43.6562 55.5391 43.2734C55.6016 42.8906 55.6445 42.5586 55.668 42.2773C55.668 42.2305 55.6719 42.1484 55.6797 42.0312C55.6875 41.9141 55.6992 41.7812 55.7148 41.6328C55.7383 41.4844 55.7656 41.332 55.7969 41.1758C55.8281 41.0117 55.8672 40.8633 55.9141 40.7305C55.9688 40.5977 56.0352 40.4883 56.1133 40.4023C56.1914 40.3164 56.2852 40.2734 56.3945 40.2734C56.5039 40.2734 56.6367 40.2891 56.793 40.3203C56.957 40.3516 57.1055 40.3984 57.2383 40.4609C57.3867 40.6641 57.5195 40.9102 57.6367 41.1992C57.7617 41.4805 57.8242 41.8633 57.8242 42.3477C57.8242 42.6523 57.793 43.0195 57.7305 43.4492C57.668 43.8711 57.5859 44.3281 57.4844 44.8203C57.3906 45.3047 57.2812 45.8047 57.1562 46.3203C57.0391 46.8359 56.918 47.332 56.793 47.8086C56.668 48.2773 56.5469 48.7109 56.4297 49.1094C56.3203 49.5 56.2266 49.8242 56.1484 50.082C56.0078 50.5352 55.8594 51.0039 55.7031 51.4883C55.5547 51.9648 55.3867 52.4688 55.1992 53C55.0195 53.5234 54.8203 54.082 54.6016 54.6758C54.3906 55.2617 54.1523 55.8906 53.8867 56.5625C53.7695 56.8672 53.6328 57.1719 53.4766 57.4766C53.3281 57.7812 53.1562 58.0586 52.9609 58.3086C52.7656 58.5508 52.543 58.75 52.293 58.9062C52.0508 59.0547 51.7773 59.1289 51.4727 59.1289C51.293 59.1289 51.1055 59.1016 50.9102 59.0469C50.7227 59 50.5625 58.8984 50.4297 58.7422C49.7891 58 49.2188 57.1602 48.7188 56.2227C48.2188 55.2773 47.7695 54.293 47.3711 53.2695C46.9805 52.2383 46.6328 51.1992 46.3281 50.1523C46.0234 49.0977 45.7461 48.0898 45.4961 47.1289L45.4258 46.8594C45.3945 46.75 45.3633 46.6406 45.332 46.5312C45.3086 46.4141 45.2812 46.3086 45.25 46.2148C45.2266 46.1211 45.1953 46.0469 45.1562 45.9922C45.125 45.9297 45.0859 45.8984 45.0391 45.8984C44.9922 45.8984 44.9336 45.9844 44.8633 46.1562C44.793 46.3281 44.7227 46.5234 44.6523 46.7422C44.582 46.9531 44.5156 47.1602 44.4531 47.3633C44.3984 47.5664 44.3633 47.6953 44.3477 47.75C44.293 47.9531 44.2109 48.2461 44.1016 48.6289C43.9922 49.0039 43.8672 49.4297 43.7266 49.9062C43.5938 50.3828 43.4453 50.8867 43.2812 51.418C43.125 51.9492 42.9727 52.4648 42.8242 52.9648C42.6758 53.457 42.5352 53.9141 42.4023 54.3359C42.2695 54.7578 42.1602 55.0977 42.0742 55.3555C42.0039 55.5586 41.918 55.8203 41.8164 56.1406C41.7148 56.4609 41.6133 56.7852 41.5117 57.1133C41.4102 57.4336 41.3164 57.7266 41.2305 57.9922C41.1445 58.2578 41.0898 58.4336 41.0664 58.5195C40.9727 58.8164 40.832 59.0391 40.6445 59.1875C40.4648 59.3438 40.2812 59.4219 40.0938 59.4219C39.9766 59.4219 39.8594 59.3789 39.7422 59.293C39.625 59.2148 39.5195 59.1172 39.4258 59C39.3398 58.8828 39.2656 58.7578 39.2031 58.625C39.1484 58.4844 39.1211 58.3594 39.1211 58.25C39.1211 58.1875 39.1406 58.0898 39.1797 57.957C39.2188 57.8164 39.2812 57.582 39.3672 57.2539L39.6719 56.0469L43.1406 44.8203Z" fill="white"/>
<path d="M85.9727 55.3555C85.9727 54.6992 86.0469 54.0195 86.1953 53.3164C86.3438 52.6055 86.5 51.9258 86.6641 51.2773C86.4609 51.2695 86.2539 51.2383 86.043 51.1836C85.832 51.1289 85.6406 51.0547 85.4688 50.9609C85.2969 50.8672 85.1562 50.7539 85.0469 50.6211C84.9375 50.4805 84.8828 50.3203 84.8828 50.1406C84.8828 50.0703 84.8984 49.9805 84.9297 49.8711C84.9609 49.7617 85.0039 49.6562 85.0586 49.5547C85.1211 49.4453 85.1992 49.3555 85.293 49.2852C85.3867 49.207 85.4922 49.168 85.6094 49.168H87.1797C87.3281 49.168 87.4297 49.1055 87.4844 48.9805C87.5391 48.8477 87.582 48.7188 87.6133 48.5938C87.7148 48.1406 87.8086 47.75 87.8945 47.4219C87.9883 47.0859 88.0664 46.8047 88.1289 46.5781C88.1914 46.3438 88.2383 46.1562 88.2695 46.0156C88.3086 45.8672 88.3281 45.75 88.3281 45.6641C88.3281 45.5625 88.3242 45.4648 88.3164 45.3711C88.3086 45.2773 88.3047 45.1484 88.3047 44.9844V44.8672C88.3047 44.8047 88.3086 44.7227 88.3164 44.6211C88.332 44.5195 88.3711 44.375 88.4336 44.1875C88.4805 44.0391 88.5664 43.8984 88.6914 43.7656C88.8164 43.6328 89 43.5664 89.2422 43.5664C89.4531 43.5664 89.6328 43.6094 89.7812 43.6953C89.9297 43.7812 90.0508 43.8945 90.1445 44.0352C90.2383 44.1758 90.3086 44.3359 90.3555 44.5156C90.4023 44.6953 90.4258 44.875 90.4258 45.0547C90.4258 45.25 90.4062 45.4258 90.3672 45.582L89.5117 48.8633C89.9336 48.793 90.3086 48.7266 90.6367 48.6641C90.9648 48.6016 91.293 48.5391 91.6211 48.4766C91.9805 48.4062 92.2891 48.3398 92.5469 48.2773C92.8125 48.2148 93.0391 48.1641 93.2266 48.125C93.4141 48.0781 93.5703 48.043 93.6953 48.0195C93.8281 47.9883 93.9375 47.9727 94.0234 47.9727C94.1484 47.9727 94.2734 47.9844 94.3984 48.0078C94.5312 48.0234 94.6445 48.0547 94.7383 48.1016C94.8398 48.1484 94.9219 48.2148 94.9844 48.3008C95.0469 48.3867 95.0781 48.5 95.0781 48.6406C95.0781 48.8281 95.0391 48.9961 94.9609 49.1445C94.8906 49.2852 94.7969 49.4102 94.6797 49.5195C94.5625 49.6211 94.4297 49.707 94.2812 49.7773C94.1328 49.8398 93.9844 49.8867 93.8359 49.918C93.7109 49.9414 93.5469 49.9766 93.3438 50.0234C93.1484 50.0703 92.9297 50.1211 92.6875 50.1758C92.4531 50.2305 92.207 50.2891 91.9492 50.3516C91.6914 50.4141 91.4414 50.4766 91.1992 50.5391C90.8398 50.6328 90.5312 50.7109 90.2734 50.7734C90.0234 50.8359 89.8086 50.8828 89.6289 50.9141C89.4492 50.9453 89.3008 50.9688 89.1836 50.9844C89.0742 51 88.9844 51.0078 88.9141 51.0078C88.7656 51.4531 88.6367 51.8906 88.5273 52.3203C88.418 52.75 88.3242 53.1523 88.2461 53.5273C88.1758 53.8945 88.1211 54.2266 88.082 54.5234C88.0508 54.8125 88.0352 55.0391 88.0352 55.2031C88.0352 55.4141 88.0547 55.6172 88.0938 55.8125C88.1328 56 88.1992 56.1641 88.293 56.3047C88.3867 56.4453 88.5117 56.5586 88.668 56.6445C88.832 56.7227 89.0352 56.7617 89.2773 56.7617C89.6914 56.7617 90.0977 56.6484 90.4961 56.4219C90.8945 56.1953 91.2734 55.9102 91.6328 55.5664C92 55.2148 92.3438 54.832 92.6641 54.418C92.9922 54.0039 93.293 53.6094 93.5664 53.2344C93.6602 53.0938 93.7812 53.0234 93.9297 53.0234C93.9766 53.0234 94.0312 53.0312 94.0938 53.0469C94.1641 53.0625 94.2305 53.0898 94.293 53.1289C94.3555 53.168 94.4062 53.2188 94.4453 53.2812C94.4922 53.3438 94.5156 53.418 94.5156 53.5039C94.5156 53.5664 94.5117 53.6133 94.5039 53.6445C94.3789 54.1289 94.1836 54.6172 93.918 55.1094C93.6602 55.5938 93.3945 56.082 93.1211 56.5742C93.0273 56.7461 92.9023 56.9141 92.7461 57.0781C92.5977 57.2422 92.4336 57.4023 92.2539 57.5586C92.0742 57.707 91.8867 57.8516 91.6914 57.9922C91.4961 58.125 91.3125 58.2461 91.1406 58.3555C90.8438 58.543 90.5195 58.6719 90.168 58.7422C89.8164 58.8125 89.4766 58.8477 89.1484 58.8477C88.6406 58.8477 88.1875 58.7578 87.7891 58.5781C87.3984 58.3906 87.0664 58.1406 86.793 57.8281C86.5273 57.5078 86.3242 57.1367 86.1836 56.7148C86.043 56.293 85.9727 55.8398 85.9727 55.3555Z" fill="white"/>
<path d="M3.98438 27.4375C4.19922 26.5488 4.47754 25.6211 4.81934 24.6543C5.1709 23.6875 5.53711 22.7012 5.91797 21.6953C6.29883 20.6895 6.6748 19.6689 7.0459 18.6338C7.41699 17.5889 7.73438 16.5488 7.99805 15.5137C8.06641 15.2598 8.125 15.0254 8.17383 14.8105C8.22266 14.5957 8.27148 14.3662 8.32031 14.1221C8.4375 13.8682 8.59375 13.6729 8.78906 13.5361C8.99414 13.3994 9.21387 13.3311 9.44824 13.3311C9.66309 13.3311 9.86328 13.3652 10.0488 13.4336C10.2441 13.502 10.4102 13.6143 10.5469 13.7705C10.6934 13.917 10.8057 14.1074 10.8838 14.3418C10.9717 14.5762 11.0156 14.8545 11.0156 15.1768C11.0156 15.5283 10.9619 15.9287 10.8545 16.3779C10.4736 17.3545 10.0879 18.3115 9.69727 19.249C9.30664 20.1865 8.92578 21.1045 8.55469 22.0029C8.19336 22.9014 7.85645 23.79 7.54395 24.6689C7.23145 25.5479 6.96289 26.417 6.73828 27.2764C6.71875 27.3447 6.67969 27.4961 6.62109 27.7305C6.5625 27.9551 6.49902 28.2285 6.43066 28.5508C6.37207 28.873 6.31836 29.2197 6.26953 29.5908C6.2207 29.9521 6.19629 30.3037 6.19629 30.6455C6.19629 30.8799 6.21094 31.1045 6.24023 31.3193C6.26953 31.5244 6.31836 31.7051 6.38672 31.8613C6.45508 32.0176 6.54785 32.1396 6.66504 32.2275C6.78223 32.3154 6.92871 32.3594 7.10449 32.3594C7.47559 32.3594 7.92969 32.1689 8.4668 31.7881C9.00391 31.3975 9.58496 30.8701 10.21 30.2061C10.835 29.542 11.4746 28.7656 12.1289 27.877C12.793 26.9883 13.4375 26.0361 14.0625 25.0205C14.6875 24.0049 15.2686 22.96 15.8057 21.8857C16.3428 20.8115 16.7969 19.752 17.168 18.707C17.2559 18.5215 17.3633 18.4043 17.4902 18.3555C17.6172 18.2969 17.7832 18.2676 17.9883 18.2676C18.3691 18.2676 18.6865 18.3848 18.9404 18.6191C19.2041 18.8438 19.3359 19.1367 19.3359 19.498C19.3359 19.5859 19.3262 19.6689 19.3066 19.7471C19.2871 19.8252 19.2578 19.918 19.2188 20.0254L19.0137 20.626C18.8574 21.085 18.7061 21.5098 18.5596 21.9004C18.4229 22.2812 18.3105 22.6426 18.2227 22.9844C18.0957 23.4727 17.9932 23.9219 17.915 24.332C17.8369 24.7324 17.7734 25.1133 17.7246 25.4746C17.6855 25.8262 17.6562 26.1729 17.6367 26.5146C17.627 26.8564 17.6221 27.2031 17.6221 27.5547C17.6221 27.6914 17.6318 27.8916 17.6514 28.1553C17.6807 28.4189 17.7197 28.7119 17.7686 29.0342C17.8174 29.3467 17.8809 29.6689 17.959 30.001C18.0469 30.3232 18.1445 30.6211 18.252 30.8945C18.3691 31.168 18.501 31.3926 18.6475 31.5684C18.8037 31.7344 18.9795 31.8174 19.1748 31.8174C19.4775 31.8174 19.7949 31.6953 20.127 31.4512C20.4688 31.1973 20.8105 30.8555 21.1523 30.4258C21.4941 29.9863 21.8359 29.4736 22.1777 28.8877C22.5293 28.3018 22.8662 27.6719 23.1885 26.998C23.5205 26.3242 23.833 25.626 24.126 24.9033C24.4287 24.1807 24.7021 23.4678 24.9463 22.7646C25.2002 22.0518 25.4199 21.3682 25.6055 20.7139C25.8008 20.0498 25.957 19.4443 26.0742 18.8975C26.1816 18.3799 26.2744 17.877 26.3525 17.3887C26.4307 16.9004 26.5088 16.4121 26.5869 15.9238C26.665 15.4355 26.748 14.9473 26.8359 14.459C26.9336 13.9609 27.0508 13.4531 27.1875 12.9355C27.2363 12.75 27.3096 12.5596 27.4072 12.3643C27.5049 12.1689 27.6221 11.9932 27.7588 11.8369C27.9053 11.6709 28.0615 11.5391 28.2275 11.4414C28.3936 11.334 28.5645 11.2803 28.7402 11.2803C29.1797 11.2803 29.4775 11.4023 29.6338 11.6465C29.79 11.8809 29.8682 12.2764 29.8682 12.833C29.8682 13.2432 29.8291 13.7217 29.751 14.2686C29.6826 14.8154 29.5898 15.3916 29.4727 15.9971C29.3652 16.5928 29.2432 17.1982 29.1064 17.8135C28.9697 18.4287 28.833 19.0098 28.6963 19.5566C28.4229 20.6699 28.0615 21.8271 27.6123 23.0283C27.1631 24.2197 26.6602 25.3867 26.1035 26.5293C25.5566 27.6621 24.9707 28.7314 24.3457 29.7373C23.7305 30.7432 23.1104 31.6074 22.4854 32.3301C22.2705 32.584 22.0166 32.8428 21.7236 33.1064C21.4307 33.3701 21.1133 33.6094 20.7715 33.8242C20.4395 34.0391 20.0977 34.2148 19.7461 34.3516C19.4043 34.498 19.0723 34.5713 18.75 34.5713C18.0762 34.5713 17.5098 34.376 17.0508 33.9854C16.6016 33.585 16.2305 33.0576 15.9375 32.4033C15.6543 31.7393 15.4346 30.9873 15.2783 30.1475C15.1318 29.2979 15.0244 28.4238 14.9561 27.5254C14.4092 28.3359 13.9062 29.0586 13.4473 29.6934C12.998 30.3281 12.5391 30.9141 12.0703 31.4512C11.7188 31.8516 11.3232 32.2861 10.8838 32.7549C10.4443 33.2139 9.97559 33.6387 9.47754 34.0293C8.98926 34.4297 8.48633 34.7568 7.96875 35.0107C7.45117 35.2744 6.94336 35.4062 6.44531 35.4062C5.86914 35.4062 5.38574 35.3037 4.99512 35.0986C4.61426 34.9033 4.30664 34.6299 4.07227 34.2783C3.83789 33.9268 3.66699 33.5117 3.55957 33.0332C3.46191 32.5547 3.41309 32.0371 3.41309 31.4805C3.41309 30.8359 3.4668 30.1719 3.57422 29.4883C3.68164 28.8047 3.81836 28.1211 3.98438 27.4375ZM30.5859 31.3193C30.7324 30.7529 30.9082 30.0938 31.1133 29.3418C31.3184 28.5898 31.5332 27.7939 31.7578 26.9541C31.9922 26.1143 32.2266 25.2549 32.4609 24.376C32.6953 23.4971 32.915 22.6426 33.1201 21.8125C33.1299 21.7734 33.1641 21.71 33.2227 21.6221C33.2812 21.5244 33.3643 21.4316 33.4717 21.3438C33.5791 21.2461 33.7158 21.1631 33.8818 21.0947C34.0479 21.0264 34.2432 20.9922 34.4678 20.9922C34.6338 20.9922 34.7949 21.0117 34.9512 21.0508C35.1074 21.0801 35.2441 21.1289 35.3613 21.1973C35.4883 21.2656 35.5859 21.3584 35.6543 21.4756C35.7324 21.583 35.7715 21.71 35.7715 21.8564C35.7715 21.8857 35.7715 21.9199 35.7715 21.959C35.7715 21.9883 35.7666 22.0176 35.7568 22.0469L35.3467 23.5996C34.8877 25.3379 34.4189 27.0811 33.9404 28.8291C33.4717 30.5771 33.0127 32.3301 32.5635 34.0879C32.5439 34.1465 32.5146 34.2197 32.4756 34.3076C32.4365 34.3955 32.3828 34.4834 32.3145 34.5713C32.2461 34.6592 32.1631 34.7324 32.0654 34.791C31.9678 34.8496 31.8506 34.8789 31.7139 34.8789C31.46 34.8789 31.2354 34.8252 31.04 34.7178C30.8447 34.6201 30.6787 34.4932 30.542 34.3369C30.4053 34.1807 30.3027 34.0098 30.2344 33.8242C30.166 33.6387 30.1318 33.4629 30.1318 33.2969C30.1318 33.248 30.1318 33.2041 30.1318 33.165C30.1318 33.126 30.1416 33.082 30.1611 33.0332L30.5859 31.3193ZM34.4092 16.1582C34.458 15.9531 34.5459 15.7041 34.6729 15.4111C34.7998 15.1182 35.0244 14.8545 35.3467 14.6201C35.5029 14.5322 35.6934 14.4541 35.918 14.3857C36.1426 14.3076 36.3037 14.2686 36.4014 14.2686C36.499 14.2686 36.5967 14.3027 36.6943 14.3711C36.8018 14.4395 36.8945 14.5127 36.9727 14.5908C37.0703 14.6885 37.1631 14.7959 37.251 14.9131C37.4951 14.9326 37.6514 15.0205 37.7197 15.1768C37.7979 15.333 37.8369 15.5186 37.8369 15.7334C37.8369 15.8896 37.8223 16.0312 37.793 16.1582C37.7637 16.2852 37.7393 16.3877 37.7197 16.4658C37.6611 16.6709 37.5488 16.8613 37.3828 17.0371C37.2168 17.2031 37.0264 17.3496 36.8115 17.4766C36.5967 17.5938 36.3721 17.6865 36.1377 17.7549C35.9033 17.8232 35.6982 17.8574 35.5225 17.8574C35.2979 17.8574 35.1221 17.8184 34.9951 17.7402C34.8779 17.6621 34.7266 17.4961 34.541 17.2422C34.4336 17.0957 34.3701 16.9834 34.3506 16.9053C34.3408 16.8174 34.3359 16.7441 34.3359 16.6855C34.3359 16.5781 34.3408 16.4854 34.3506 16.4072C34.3701 16.3193 34.3896 16.2363 34.4092 16.1582ZM48.6035 21.9736C48.2617 21.9736 47.8955 22.0566 47.5049 22.2227C47.1143 22.3789 46.709 22.5938 46.2891 22.8672C45.8691 23.1406 45.4395 23.4531 45 23.8047C44.5703 24.1465 44.1455 24.5029 43.7256 24.874C43.5107 25.0596 43.3057 25.2305 43.1104 25.3867C42.915 25.5332 42.7197 25.6455 42.5244 25.7236C42.3877 25.9482 42.2412 26.2461 42.085 26.6172C41.9385 26.9785 41.792 27.3789 41.6455 27.8184C41.499 28.248 41.3574 28.6924 41.2207 29.1514C41.0938 29.6006 40.9863 30.0205 40.8984 30.4111C40.8496 30.6162 40.8105 30.8164 40.7812 31.0117C40.752 31.207 40.7178 31.417 40.6787 31.6416C40.6396 31.8564 40.5908 32.0908 40.5322 32.3447C40.4834 32.5986 40.4199 32.8818 40.3418 33.1943C40.293 33.3799 40.2148 33.5312 40.1074 33.6484C40 33.7559 39.8877 33.8389 39.7705 33.8975C39.6533 33.9561 39.541 33.9902 39.4336 34C39.3262 34.0195 39.2432 34.0293 39.1846 34.0293C38.8135 34.0293 38.5107 33.9414 38.2764 33.7656C38.042 33.5898 37.9248 33.248 37.9248 32.7402C37.9248 32.6035 37.9297 32.4619 37.9395 32.3154C37.9492 32.1592 37.9785 31.9883 38.0273 31.8027C38.2422 30.875 38.4473 30.04 38.6426 29.2979C38.8477 28.5557 39.0527 27.8672 39.2578 27.2324C39.4629 26.5977 39.668 26.002 39.873 25.4453C40.0879 24.8789 40.3027 24.3125 40.5176 23.7461C40.7422 23.1699 40.9717 22.5791 41.2061 21.9736C41.4502 21.3584 41.709 20.6797 41.9824 19.9375C42.041 19.7715 42.1924 19.6348 42.4365 19.5273C42.6904 19.4102 42.959 19.3516 43.2422 19.3516C43.6133 19.3516 43.916 19.4346 44.1504 19.6006C44.3945 19.7666 44.5166 20.0059 44.5166 20.3184C44.5166 20.3477 44.5068 20.4014 44.4873 20.4795C44.4678 20.5576 44.4385 20.6406 44.3994 20.7285L43.7549 22.252C44.165 21.9297 44.5898 21.6074 45.0293 21.2852C45.4785 20.9629 45.9375 20.6748 46.4062 20.4209C46.875 20.1572 47.3438 19.9473 47.8125 19.791C48.291 19.625 48.7598 19.542 49.2188 19.542C50.1562 19.542 50.8887 19.7959 51.416 20.3037C51.9434 20.8018 52.207 21.5781 52.207 22.6328C52.207 23.2383 52.0996 23.9268 51.8848 24.6982C51.6797 25.4697 51.416 26.2998 51.0938 27.1885C50.7812 28.0674 50.4395 28.9951 50.0684 29.9717C49.707 30.9385 49.3701 31.9248 49.0576 32.9307C48.9697 33.2041 48.877 33.4336 48.7793 33.6191C48.6914 33.8047 48.584 33.9512 48.457 34.0586C48.3301 34.1758 48.1787 34.2588 48.0029 34.3076C47.8369 34.3564 47.6318 34.3809 47.3877 34.3809C47.0068 34.3809 46.7432 34.3076 46.5967 34.1611C46.4502 34.0244 46.377 33.7998 46.377 33.4873C46.377 33.2139 46.416 32.8818 46.4941 32.4912C46.582 32.0908 46.6992 31.6562 46.8457 31.1875C47.002 30.709 47.1777 30.2012 47.373 29.6641C47.5781 29.127 47.7979 28.5801 48.0322 28.0234C48.2178 27.5742 48.3984 27.125 48.5742 26.6758C48.7598 26.2266 48.9209 25.792 49.0576 25.3721C49.2041 24.9521 49.3213 24.5518 49.4092 24.1709C49.4971 23.79 49.541 23.4385 49.541 23.1162C49.541 22.8135 49.4727 22.5498 49.3359 22.3252C49.209 22.0908 48.9648 21.9736 48.6035 21.9736ZM54.5801 28.3457C54.5801 27.9258 54.6924 27.5693 54.917 27.2764C55.1416 26.9834 55.4395 26.7881 55.8105 26.6904C55.918 26.4756 56.084 26.1875 56.3086 25.8262C56.5332 25.4551 56.8115 25.0547 57.1436 24.625C57.4756 24.1953 57.8516 23.7656 58.2715 23.3359C58.7012 22.8965 59.1699 22.501 59.6777 22.1494C60.1953 21.7881 60.7471 21.4951 61.333 21.2705C61.9287 21.0459 62.5586 20.9336 63.2227 20.9336C63.7891 20.9336 64.2822 21.002 64.7021 21.1387C65.1221 21.2754 65.4688 21.4658 65.7422 21.71C66.0156 21.9541 66.2207 22.2471 66.3574 22.5889C66.4941 22.9209 66.5625 23.2822 66.5625 23.6729C66.5625 24.0049 66.5186 24.3223 66.4307 24.625C66.2939 25.1719 66.04 25.6504 65.6689 26.0605C65.2979 26.4707 64.8584 26.832 64.3506 27.1445C63.8525 27.4473 63.3057 27.7012 62.71 27.9062C62.124 28.1113 61.5332 28.2822 60.9375 28.4189C60.3516 28.5557 59.7852 28.6631 59.2383 28.7412C58.6914 28.8096 58.2178 28.8633 57.8174 28.9023C57.7295 29.0781 57.6514 29.3027 57.583 29.5762C57.5244 29.8398 57.4951 30.0986 57.4951 30.3525C57.4951 30.9189 57.7197 31.3584 58.1689 31.6709C58.6182 31.9834 59.2383 32.1396 60.0293 32.1396C60.4883 32.1396 60.9277 32.0908 61.3477 31.9932C61.7676 31.8857 62.1631 31.7539 62.5342 31.5977C62.915 31.4316 63.2715 31.2559 63.6035 31.0703C63.9355 30.875 64.2383 30.6846 64.5117 30.499C64.8633 30.2646 65.1953 30.0693 65.5078 29.9131C65.8301 29.7471 66.1133 29.6641 66.3574 29.6641C66.6016 29.6641 66.7578 29.7275 66.8262 29.8545C66.8945 29.9717 66.9287 30.0986 66.9287 30.2354C66.9287 30.3135 66.9238 30.3916 66.9141 30.4697C66.9141 30.5381 66.9092 30.5967 66.8994 30.6455C66.8506 30.8994 66.7529 31.1533 66.6064 31.4072C66.46 31.6611 66.2744 31.8809 66.0498 32.0664C65.0342 32.8672 63.9893 33.4385 62.915 33.7803C61.8506 34.1221 60.7129 34.293 59.502 34.293C59.2676 34.293 58.9893 34.2783 58.667 34.249C58.3545 34.2197 58.0273 34.1611 57.6855 34.0732C57.3438 33.9854 57.0068 33.8584 56.6748 33.6924C56.3428 33.5264 56.0449 33.3066 55.7812 33.0332C55.5273 32.7598 55.3174 32.4229 55.1514 32.0225C54.9951 31.6221 54.917 31.1387 54.917 30.5723C54.917 30.1133 54.9805 29.6006 55.1074 29.0342C54.9805 29.0146 54.8584 28.9512 54.7412 28.8438C54.6338 28.7266 54.5801 28.5605 54.5801 28.3457ZM63.75 24.2881C63.7695 24.2393 63.7793 24.1953 63.7793 24.1562C63.7793 24.1172 63.7793 24.0732 63.7793 24.0244C63.7793 23.7607 63.6816 23.5654 63.4863 23.4385C63.291 23.3018 63.0566 23.2334 62.7832 23.2334C62.3535 23.2334 61.9287 23.3457 61.5088 23.5703C61.0986 23.7949 60.708 24.0781 60.3369 24.4199C59.9756 24.752 59.6533 25.1133 59.3701 25.5039C59.0869 25.8848 58.8672 26.2314 58.7109 26.5439C59.4141 26.4854 60.0586 26.3926 60.6445 26.2656C61.2305 26.1289 61.7383 25.9629 62.168 25.7676C62.6074 25.5625 62.959 25.3379 63.2227 25.0938C63.4961 24.8398 63.6719 24.5713 63.75 24.2881Z" fill="white"/>
<mask id="mask0_248_138" style="mask-type:alpha" maskUnits="userSpaceOnUse" x="51" y="46" width="41" height="14">
<path d="M54 56C58.5 53 64.4998 53.5 70.5 55C77.3083 56.702 87.5 51 89 50" stroke="#75C4C7" stroke-width="9"/>
</mask>
<g mask="url(#mask0_248_138)">
<circle cx="71" cy="49" r="11" transform="rotate(-180 71 49)" fill="white"/>
</g>
<circle cx="71" cy="49" r="10.5" stroke="white"/>
</svg>
