<svg width="202" height="202" viewBox="0 0 202 202" fill="none" xmlns="http://www.w3.org/2000/svg">
<g clip-path="url(#clip0_245_134)">
<path d="M174.442 164.162L173.202 165.575C164.072 175.778 152.893 183.939 140.394 189.527C127.896 195.115 114.359 198.003 100.668 198.003C86.9767 198.003 73.4398 195.115 60.9411 189.527C48.4424 183.939 37.2632 175.778 28.1336 165.575L26.8936 164.162C44.8404 131.681 71.2274 111.161 100.668 111.161C130.108 111.161 156.495 131.681 174.442 164.162Z" fill="#ABA08D" stroke="#ABA08D" stroke-width="6.66674" stroke-miterlimit="10"/>
<path d="M198.002 100.668C198.038 123.977 189.674 146.518 174.442 164.162C156.495 131.681 130.108 111.161 100.668 111.161C71.2275 111.161 44.8406 131.681 26.8937 164.162C16.653 152.263 9.44241 138.063 5.87698 122.775C2.31156 107.486 2.49711 91.5615 6.41784 76.36C10.3386 61.1585 17.8781 47.1309 28.3934 35.4739C38.9086 23.8168 52.0874 14.8761 66.8057 9.41453C81.524 3.95294 97.345 2.1325 112.919 4.1085C128.493 6.0845 143.358 11.7983 156.246 20.7625C169.134 29.7267 179.663 41.6753 186.934 55.589C194.205 69.5028 198.002 84.9688 198.002 100.668Z" stroke="#ABA08D" stroke-width="6.66674" stroke-miterlimit="10"/>
<path d="M100.5 100C115.136 100 127 88.1355 127 73.5C127 58.8645 115.136 47 100.5 47C85.8645 47 74 58.8645 74 73.5C74 88.1355 85.8645 100 100.5 100Z" fill="#ABA08D" stroke="#ABA08D" stroke-width="2.66669" stroke-miterlimit="10"/>
</g>
<defs>
<clipPath id="clip0_245_134">
<rect width="201.335" height="201.335" fill="white"/>
</clipPath>
</defs>
</svg>
