<svg width="202" height="202" viewBox="0 0 202 202" fill="none" xmlns="http://www.w3.org/2000/svg">
<g clip-path="url(#clip0_234_130)">
<path d="M198.002 100.668C198.002 119.919 192.294 138.737 181.598 154.744C170.903 170.75 155.702 183.226 137.916 190.593C120.131 197.96 100.56 199.887 81.6789 196.132C62.7979 192.376 45.4546 183.106 31.8421 169.494C18.2297 155.881 8.95946 138.538 5.20379 119.657C1.44813 100.776 3.37566 81.205 10.7427 63.4195C18.1097 45.634 30.5853 30.4324 46.5918 19.7372C62.5984 9.04195 81.417 3.33339 100.668 3.33339C113.464 3.28403 126.143 5.76796 137.974 10.642C149.806 15.516 160.556 22.6837 169.604 31.7319C178.652 40.7801 185.82 51.5297 190.694 63.3612C195.568 75.1926 198.052 87.8718 198.002 100.668Z" stroke="#ABA08D" stroke-width="6.66674" stroke-miterlimit="10"/>
<path d="M100.668 107.334C113.923 107.334 124.668 96.5892 124.668 83.3342C124.668 70.0792 113.923 59.334 100.668 59.334C87.4128 59.334 76.6675 70.0792 76.6675 83.3342C76.6675 96.5892 87.4128 107.334 100.668 107.334Z" stroke="#ABA08D" stroke-width="6.66674" stroke-miterlimit="10"/>
<path d="M30.4404 168.042C35.9421 153.89 45.5911 141.73 58.1227 133.156C70.6544 124.583 85.484 119.995 100.668 119.995C115.852 119.995 130.681 124.583 143.213 133.156C155.745 141.73 165.394 153.89 170.895 168.042" stroke="#ABA08D" stroke-width="6.66674" stroke-miterlimit="10"/>
</g>
<defs>
<clipPath id="clip0_234_130">
<rect width="201.335" height="201.335" fill="white"/>
</clipPath>
</defs>
</svg>
